{
  "asset": {
    "generator": "Khronos glTF Blender I/O v1.8.19",
    "version": "2.0"
  },
  "scene": 0,
  "scenes": [
    {
      "name": "Scene",
      "nodes": [6]
    }
  ],
  "nodes": [
    {
      "mesh": 0,
      "name": "Tree_0_Tree_0Mat_0"
    },
    {
      "mesh": 1,
      "name": "Tree_1_Tree_1Mat_0"
    },
    {
      "children": [1],
      "name": "Tree_1"
    },
    {
      "children": [0, 2],
      "name": "Tree_0"
    },
    {
      "children": [3],
      "name": "RootNode"
    },
    {
      "children": [4],
      "name": "pine.fbx",
      "rotation": [0.7071068286895752, 0, 0, 0.7071068286895752],
      "scale": [
        0.009999999776482582, 0.009999999776482582, 0.009999999776482582
      ]
    },
    {
      "children": [5],
      "name": "Sketchfab_model",
      "rotation": [-0.7071068286895752, 0, 0, 0.7071068286895752]
    }
  ],
  "materials": [
    {
      "name": "Tree_0Mat",
      "normalTexture": {
        "index": 0
      },
      "pbrMetallicRoughness": {
        "baseColorTexture": {
          "index": 1
        },
        "metallicFactor": 0,
        "metallicRoughnessTexture": {
          "index": 2
        }
      }
    },
    {
      "alphaCutoff": 0.2396889179944992,
      "alphaMode": "MASK",
      "doubleSided": true,
      "name": "Tree_1Mat",
      "normalTexture": {
        "index": 3
      },
      "pbrMetallicRoughness": {
        "baseColorTexture": {
          "index": 4
        },
        "metallicFactor": 0,
        "metallicRoughnessTexture": {
          "index": 5
        }
      }
    }
  ],
  "meshes": [
    {
      "name": "Tree_0_Tree_0Mat_0",
      "primitives": [
        {
          "attributes": {
            "POSITION": 0,
            "NORMAL": 1,
            "TEXCOORD_0": 2
          },
          "indices": 3,
          "material": 0
        }
      ]
    },
    {
      "name": "Tree_1_Tree_1Mat_0",
      "primitives": [
        {
          "attributes": {
            "POSITION": 4,
            "NORMAL": 5,
            "TEXCOORD_0": 6
          },
          "indices": 7,
          "material": 1
        }
      ]
    }
  ],
  "textures": [
    {
      "sampler": 0,
      "source": 0
    },
    {
      "sampler": 0,
      "source": 1
    },
    {
      "sampler": 0,
      "source": 2
    },
    {
      "sampler": 0,
      "source": 3
    },
    {
      "sampler": 0,
      "source": 4
    },
    {
      "sampler": 0,
      "source": 5
    }
  ],
  "images": [
    {
      "mimeType": "image/png",
      "name": "Tree_0Mat_normal",
      "uri": "textures/Tree_0Mat_normal.png"
    },
    {
      "mimeType": "image/png",
      "name": "Tree_0Mat_baseColor",
      "uri": "textures/Tree_0Mat_baseColor.png"
    },
    {
      "mimeType": "image/png",
      "name": "Tree_0Mat_metallicRoughness",
      "uri": "textures/Tree_0Mat_metallicRoughness.png"
    },
    {
      "mimeType": "image/png",
      "name": "Tree_1Mat_normal",
      "uri": "textures/Tree_1Mat_normal.png"
    },
    {
      "mimeType": "image/png",
      "name": "Tree_1Mat_baseColor",
      "uri": "textures/Tree_1Mat_baseColor.png"
    },
    {
      "mimeType": "image/png",
      "name": "Tree_1Mat_metallicRoughness",
      "uri": "textures/Tree_1Mat_metallicRoughness.png"
    }
  ],
  "accessors": [
    {
      "bufferView": 0,
      "componentType": 5126,
      "count": 1847,
      "max": [66.99981689453125, 494.27716064453125, 74.0457763671875],
      "min": [-64.33940887451172, 0, -73.8727035522461],
      "type": "VEC3"
    },
    {
      "bufferView": 1,
      "componentType": 5126,
      "count": 1847,
      "type": "VEC3"
    },
    {
      "bufferView": 2,
      "componentType": 5126,
      "count": 1847,
      "type": "VEC2"
    },
    {
      "bufferView": 3,
      "componentType": 5123,
      "count": 7419,
      "type": "SCALAR"
    },
    {
      "bufferView": 4,
      "componentType": 5126,
      "count": 1147,
      "max": [106.03965759277344, 546.2984619140625, 115.50135803222656],
      "min": [-108.0793685913086, 157.4602813720703, -114.74664306640625],
      "type": "VEC3"
    },
    {
      "bufferView": 5,
      "componentType": 5126,
      "count": 1147,
      "type": "VEC3"
    },
    {
      "bufferView": 6,
      "componentType": 5126,
      "count": 1147,
      "type": "VEC2"
    },
    {
      "bufferView": 7,
      "componentType": 5123,
      "count": 3432,
      "type": "SCALAR"
    }
  ],
  "bufferViews": [
    {
      "buffer": 0,
      "byteLength": 22164,
      "byteOffset": 0
    },
    {
      "buffer": 0,
      "byteLength": 22164,
      "byteOffset": 22164
    },
    {
      "buffer": 0,
      "byteLength": 14776,
      "byteOffset": 44328
    },
    {
      "buffer": 0,
      "byteLength": 14838,
      "byteOffset": 59104
    },
    {
      "buffer": 0,
      "byteLength": 13764,
      "byteOffset": 73944
    },
    {
      "buffer": 0,
      "byteLength": 13764,
      "byteOffset": 87708
    },
    {
      "buffer": 0,
      "byteLength": 9176,
      "byteOffset": 101472
    },
    {
      "buffer": 0,
      "byteLength": 6864,
      "byteOffset": 110648
    }
  ],
  "samplers": [
    {
      "magFilter": 9729,
      "minFilter": 9987
    }
  ],
  "buffers": [
    {
      "byteLength": 117512,
      "uri": "PineTree.bin"
    }
  ]
}
