{
  "accessors": [
    {
      "bufferView": 2,
      "componentType": 5126,
      "count": 634,
      "max": [
        1.4947459697723389,
        6.557175159454346,
        1.5753660202026367
      ],
      "min": [
        -1.5125410556793213,
        3.4793360233306885,
        -1.1073800325393677
      ],
      "type": "VEC3"
    },
    {
      "bufferView": 2,
      "byteOffset": 7608,
      "componentType": 5126,
      "count": 634,
      "max": [
        0.981899082660675,
        0.9989701509475708,
        0.9965854287147522
      ],
      "min": [
        -0.9934688806533813,
        -0.9959465861320496,
        -0.9981487393379211
      ],
      "type": "VEC3"
    },
    {
      "bufferView": 3,
      "componentType": 5126,
      "count": 634,
      "max": [
        0.9993884563446045,
        0.9982563257217407,
        0.9996687769889832,
        1.0
      ],
      "min": [
        -0.9961367845535278,
        -0.9548820853233337,
        -0.9848936796188354,
        1.0
      ],
      "type": "VEC4"
    },
    {
      "bufferView": 1,
      "componentType": 5126,
      "count": 634,
      "max": [
        0.999779999256134,
        0.9726629853248596
      ],
      "min": [
        0.0002209999947808683,
        0.0002209999947808683
      ],
      "type": "VEC2"
    },
    {
      "bufferView": 1,
      "byteOffset": 5072,
      "componentType": 5126,
      "count": 634,
      "max": [
        0.999779999256134,
        0.9726629853248596
      ],
      "min": [
        0.0002209999947808683,
        0.0002209999947808683
      ],
      "type": "VEC2"
    },
    {
      "bufferView": 0,
      "componentType": 5125,
      "count": 2679,
      "type": "SCALAR"
    },
    {
      "bufferView": 2,
      "byteOffset": 15216,
      "componentType": 5126,
      "count": 415,
      "max": [
        2.5380289554595947,
        7.431191921234131,
        2.3924219608306885
      ],
      "min": [
        -1.794625997543335,
        -2.019479274749756,
        -2.0136759281158447
      ],
      "type": "VEC3"
    },
    {
      "bufferView": 2,
      "byteOffset": 20196,
      "componentType": 5126,
      "count": 415,
      "max": [
        0.9968747496604919,
        0.9885997772216797,
        0.9953141212463379
      ],
      "min": [
        -0.9813371896743774,
        -0.9983911514282227,
        -0.9991503953933716
      ],
      "type": "VEC3"
    },
    {
      "bufferView": 3,
      "byteOffset": 10144,
      "componentType": 5126,
      "count": 415,
      "max": [
        0.9997047781944275,
        0.995188295841217,
        0.9862967729568481,
        1.0
      ],
      "min": [
        -0.9993466734886169,
        -0.9998400807380676,
        -0.9920997619628906,
        1.0
      ],
      "type": "VEC4"
    },
    {
      "bufferView": 1,
      "byteOffset": 10144,
      "componentType": 5126,
      "count": 415,
      "max": [
        0.9996150135993958,
        0.9728609919548035
      ],
      "min": [
        0.00038400001358240843,
        0.00038400001358240843
      ],
      "type": "VEC2"
    },
    {
      "bufferView": 1,
      "byteOffset": 13464,
      "componentType": 5126,
      "count": 415,
      "max": [
        0.9996150135993958,
        0.9728609919548035
      ],
      "min": [
        0.00038400001358240843,
        0.00038400001358240843
      ],
      "type": "VEC2"
    },
    {
      "bufferView": 0,
      "byteOffset": 10716,
      "componentType": 5125,
      "count": 1314,
      "type": "SCALAR"
    },
    {
      "bufferView": 2,
      "byteOffset": 25176,
      "componentType": 5126,
      "count": 522,
      "max": [
        1.338958978652954,
        3.8993730545043945,
        0.6921849846839905
      ],
      "min": [
        -0.4449799954891205,
        0.686913013458252,
        -0.8467389941215515
      ],
      "type": "VEC3"
    },
    {
      "bufferView": 2,
      "byteOffset": 31440,
      "componentType": 5126,
      "count": 522,
      "max": [
        0.9937057495117188,
        0.9937689304351807,
        0.9975285530090332
      ],
      "min": [
        -0.948652446269989,
        -0.9685842394828796,
        -0.9910162091255188
      ],
      "type": "VEC3"
    },
    {
      "bufferView": 3,
      "byteOffset": 16784,
      "componentType": 5126,
      "count": 522,
      "max": [
        0.9719609618186951,
        0.9921458959579468,
        0.9946215152740479,
        1.0
      ],
      "min": [
        -0.9987756013870239,
        -0.9918379783630371,
        -0.9951198101043701,
        -1.0
      ],
      "type": "VEC4"
    },
    {
      "bufferView": 1,
      "byteOffset": 16784,
      "componentType": 5126,
      "count": 522,
      "max": [
        0.9962739944458008,
        0.99965500831604
      ],
      "min": [
        0.00034500000765547156,
        0.00034500000765547156
      ],
      "type": "VEC2"
    },
    {
      "bufferView": 1,
      "byteOffset": 20960,
      "componentType": 5126,
      "count": 522,
      "max": [
        0.9962739944458008,
        0.99965500831604
      ],
      "min": [
        0.00034500000765547156,
        0.00034500000765547156
      ],
      "type": "VEC2"
    },
    {
      "bufferView": 0,
      "byteOffset": 15972,
      "componentType": 5125,
      "count": 1881,
      "type": "SCALAR"
    },
    {
      "bufferView": 2,
      "byteOffset": 37704,
      "componentType": 5126,
      "count": 687,
      "max": [
        1.502274990081787,
        3.978339910507202,
        0.5799059867858887
      ],
      "min": [
        -1.131469964981079,
        1.402189016342163,
        -1.3394759893417358
      ],
      "type": "VEC3"
    },
    {
      "bufferView": 2,
      "byteOffset": 45948,
      "componentType": 5126,
      "count": 687,
      "max": [
        0.995453953742981,
        0.9935912489891052,
        0.9917906522750854
      ],
      "min": [
        -0.9937778115272522,
        -0.9997539520263672,
        -0.998656153678894
      ],
      "type": "VEC3"
    },
    {
      "bufferView": 3,
      "byteOffset": 25136,
      "componentType": 5126,
      "count": 687,
      "max": [
        0.9947139620780945,
        0.9987267255783081,
        0.9984347224235535,
        1.0
      ],
      "min": [
        -0.999739944934845,
        -0.9951643943786621,
        -0.9884544610977173,
        -1.0
      ],
      "type": "VEC4"
    },
    {
      "bufferView": 1,
      "byteOffset": 25136,
      "componentType": 5126,
      "count": 687,
      "max": [
        0.9995949864387512,
        0.9898539781570435
      ],
      "min": [
        0.00040499999886378646,
        0.00040499999886378646
      ],
      "type": "VEC2"
    },
    {
      "bufferView": 1,
      "byteOffset": 30632,
      "componentType": 5126,
      "count": 687,
      "max": [
        0.9995949864387512,
        0.9898539781570435
      ],
      "min": [
        0.00040499999886378646,
        0.00040499999886378646
      ],
      "type": "VEC2"
    },
    {
      "bufferView": 0,
      "byteOffset": 23496,
      "componentType": 5125,
      "count": 2628,
      "type": "SCALAR"
    },
    {
      "bufferView": 2,
      "byteOffset": 54192,
      "componentType": 5126,
      "count": 1008,
      "max": [
        2.38263201713562,
        3.870527982711792,
        2.306835889816284
      ],
      "min": [
        -2.1316630840301514,
        -0.02836799994111061,
        -1.269745945930481
      ],
      "type": "VEC3"
    },
    {
      "bufferView": 2,
      "byteOffset": 66288,
      "componentType": 5126,
      "count": 1008,
      "max": [
        0.9989948868751526,
        0.9929607510566711,
        0.9923980236053467
      ],
      "min": [
        -0.9968111515045166,
        -0.9980037808418274,
        -0.9992268681526184
      ],
      "type": "VEC3"
    },
    {
      "bufferView": 3,
      "byteOffset": 36128,
      "componentType": 5126,
      "count": 1008,
      "max": [
        0.9981878399848938,
        0.9998481273651123,
        0.998728334903717,
        1.0
      ],
      "min": [
        -0.9991928935050964,
        -0.9985037446022034,
        -0.9973737001419067,
        -1.0
      ],
      "type": "VEC4"
    },
    {
      "bufferView": 1,
      "byteOffset": 36128,
      "componentType": 5126,
      "count": 1008,
      "max": [
        0.9995989799499512,
        0.998881995677948
      ],
      "min": [
        0.00040099999750964344,
        0.00040099999750964344
      ],
      "type": "VEC2"
    },
    {
      "bufferView": 1,
      "byteOffset": 44192,
      "componentType": 5126,
      "count": 1008,
      "max": [
        0.9995989799499512,
        0.998881995677948
      ],
      "min": [
        0.00040099999750964344,
        0.00040099999750964344
      ],
      "type": "VEC2"
    },
    {
      "bufferView": 0,
      "byteOffset": 34008,
      "componentType": 5125,
      "count": 4056,
      "type": "SCALAR"
    }
  ],
  "asset": {
    "extras": {
      "author": "wilsonghm99 (https://sketchfab.com/wilsonghm99)",
      "license": "CC-BY-NC-4.0 (http://creativecommons.org/licenses/by-nc/4.0/)",
      "source": "https://sketchfab.com/3d-models/the-pumpkin-mage-1d4a203a2aa742faa04cfeab6486ce6e",
      "title": "The Pumpkin Mage"
    },
    "generator": "Sketchfab-12.64.0",
    "version": "2.0"
  },
  "bufferViews": [
    {
      "buffer": 0,
      "byteLength": 50232,
      "name": "floatBufferViews",
      "target": 34963
    },
    {
      "buffer": 0,
      "byteLength": 52256,
      "byteOffset": 50232,
      "byteStride": 8,
      "name": "floatBufferViews",
      "target": 34962
    },
    {
      "buffer": 0,
      "byteLength": 78384,
      "byteOffset": 102488,
      "byteStride": 12,
      "name": "floatBufferViews",
      "target": 34962
    },
    {
      "buffer": 0,
      "byteLength": 52256,
      "byteOffset": 180872,
      "byteStride": 16,
      "name": "floatBufferViews",
      "target": 34962
    }
  ],
  "buffers": [
    {
      "byteLength": 233128,
      "uri": "scene.bin"
    }
  ],
  "images": [
    {
      "uri": "textures/head_baseColor.jpeg"
    },
    {
      "uri": "textures/head_metallicRoughness.png"
    },
    {
      "uri": "textures/head_normal.png"
    },
    {
      "uri": "textures/wood_baseColor.jpeg"
    },
    {
      "uri": "textures/wood_metallicRoughness.png"
    },
    {
      "uri": "textures/wood_normal.png"
    },
    {
      "uri": "textures/briefcase_baseColor.jpeg"
    },
    {
      "uri": "textures/briefcase_metallicRoughness.png"
    },
    {
      "uri": "textures/briefcase_normal.png"
    },
    {
      "uri": "textures/clothing1_baseColor.jpeg"
    },
    {
      "uri": "textures/clothing1_metallicRoughness.png"
    },
    {
      "uri": "textures/clothing1_normal.png"
    },
    {
      "uri": "textures/clothing2_baseColor.jpeg"
    },
    {
      "uri": "textures/clothing2_metallicRoughness.png"
    },
    {
      "uri": "textures/clothing2_normal.png"
    }
  ],
  "materials": [
    {
      "doubleSided": true,
      "name": "head",
      "normalTexture": {
        "index": 2,
        "texCoord": 1
      },
      "pbrMetallicRoughness": {
        "baseColorTexture": {
          "index": 0
        },
        "metallicRoughnessTexture": {
          "index": 1
        }
      }
    },
    {
      "doubleSided": true,
      "name": "wood",
      "normalTexture": {
        "index": 5
      },
      "pbrMetallicRoughness": {
        "baseColorTexture": {
          "index": 3
        },
        "metallicRoughnessTexture": {
          "index": 4
        }
      }
    },
    {
      "doubleSided": true,
      "name": "briefcase",
      "normalTexture": {
        "index": 8
      },
      "occlusionTexture": {
        "index": 7
      },
      "pbrMetallicRoughness": {
        "baseColorTexture": {
          "index": 6
        },
        "metallicRoughnessTexture": {
          "index": 7
        }
      }
    },
    {
      "doubleSided": true,
      "name": "clothing1",
      "normalTexture": {
        "index": 11,
        "texCoord": 1
      },
      "pbrMetallicRoughness": {
        "baseColorTexture": {
          "index": 9
        },
        "metallicRoughnessTexture": {
          "index": 10
        }
      }
    },
    {
      "doubleSided": true,
      "name": "clothing2",
      "normalTexture": {
        "index": 14
      },
      "pbrMetallicRoughness": {
        "baseColorTexture": {
          "index": 12
        },
        "metallicRoughnessTexture": {
          "index": 13
        }
      }
    }
  ],
  "meshes": [
    {
      "name": "head_head_0",
      "primitives": [
        {
          "attributes": {
            "NORMAL": 1,
            "POSITION": 0,
            "TANGENT": 2,
            "TEXCOORD_0": 3,
            "TEXCOORD_1": 4
          },
          "indices": 5,
          "material": 0,
          "mode": 4
        }
      ]
    },
    {
      "name": "wood_wood_0",
      "primitives": [
        {
          "attributes": {
            "NORMAL": 7,
            "POSITION": 6,
            "TANGENT": 8,
            "TEXCOORD_0": 9,
            "TEXCOORD_1": 10
          },
          "indices": 11,
          "material": 1,
          "mode": 4
        }
      ]
    },
    {
      "name": "briefcase_briefcase_0",
      "primitives": [
        {
          "attributes": {
            "NORMAL": 13,
            "POSITION": 12,
            "TANGENT": 14,
            "TEXCOORD_0": 15,
            "TEXCOORD_1": 16
          },
          "indices": 17,
          "material": 2,
          "mode": 4
        }
      ]
    },
    {
      "name": "clothing1_clothing1_0",
      "primitives": [
        {
          "attributes": {
            "NORMAL": 19,
            "POSITION": 18,
            "TANGENT": 20,
            "TEXCOORD_0": 21,
            "TEXCOORD_1": 22
          },
          "indices": 23,
          "material": 3,
          "mode": 4
        }
      ]
    },
    {
      "name": "clothing2_clothing2_0",
      "primitives": [
        {
          "attributes": {
            "NORMAL": 25,
            "POSITION": 24,
            "TANGENT": 26,
            "TEXCOORD_0": 27,
            "TEXCOORD_1": 28
          },
          "indices": 29,
          "material": 4,
          "mode": 4
        }
      ]
    }
  ],
  "nodes": [
    {
      "children": [
        1
      ],
      "matrix": [
        0.0015738875372335315,
        -2.5310041546164663e-19,
        -4.458460365110253e-19,
        0.0,
        -4.458460365110252e-19,
        3.4947323640145e-19,
        -0.0015738875372335315,
        0.0,
        2.5310041546164672e-19,
        0.0015738875372335315,
        3.4947323640144995e-19,
        0.0,
        -8.171241461241152e-14,
        -2.2899572286405597e-05,
        -1.2072493518644483e-05,
        1.0
      ],
      "name": "Sketchfab_model"
    },
    {
      "children": [
        2
      ],
      "matrix": [
        1.0,
        0.0,
        0.0,
        0.0,
        0.0,
        0.0,
        1.0,
        0.0,
        0.0,
        -1.0,
        0.0,
        0.0,
        0.0,
        0.0,
        0.0,
        1.0
      ],
      "name": "The Pumpkin Mage.fbx"
    },
    {
      "children": [
        3,
        5,
        7,
        9,
        11
      ],
      "name": "RootNode"
    },
    {
      "children": [
        4
      ],
      "matrix": [
        100.0,
        0.0,
        0.0,
        0.0,
        0.0,
        99.99999999999866,
        1.6292067073209114e-05,
        0.0,
        0.0,
        -1.6292067073209114e-05,
        99.99999999999866,
        0.0,
        0.0,
        201.45912170410156,
        3.282185934949666e-05,
        1.0
      ],
      "name": "head"
    },
    {
      "mesh": 0,
      "name": "head_head_0"
    },
    {
      "children": [
        6
      ],
      "matrix": [
        100.0,
        0.0,
        0.0,
        0.0,
        0.0,
        99.99999999999866,
        1.6292067073209114e-05,
        0.0,
        0.0,
        -1.6292067073209114e-05,
        99.99999999999866,
        0.0,
        0.0,
        201.45912170410156,
        3.282185934949666e-05,
        1.0
      ],
      "name": "wood"
    },
    {
      "mesh": 1,
      "name": "wood_wood_0"
    },
    {
      "children": [
        8
      ],
      "matrix": [
        100.0,
        0.0,
        0.0,
        0.0,
        0.0,
        99.99999999999866,
        1.6292067073209114e-05,
        0.0,
        0.0,
        -1.6292067073209114e-05,
        99.99999999999866,
        0.0,
        0.0,
        201.45912170410156,
        3.282185934949666e-05,
        1.0
      ],
      "name": "briefcase"
    },
    {
      "mesh": 2,
      "name": "briefcase_briefcase_0"
    },
    {
      "children": [
        10
      ],
      "matrix": [
        100.0,
        0.0,
        0.0,
        0.0,
        0.0,
        99.99999999999866,
        1.6292067073209114e-05,
        0.0,
        0.0,
        -1.6292067073209114e-05,
        99.99999999999866,
        0.0,
        0.0,
        201.45912170410156,
        3.282185934949666e-05,
        1.0
      ],
      "name": "clothing1"
    },
    {
      "mesh": 3,
      "name": "clothing1_clothing1_0"
    },
    {
      "children": [
        12
      ],
      "matrix": [
        100.0,
        0.0,
        0.0,
        0.0,
        0.0,
        99.99999999999866,
        1.6292067073209114e-05,
        0.0,
        0.0,
        -1.6292067073209114e-05,
        99.99999999999866,
        0.0,
        0.0,
        201.45912170410156,
        3.282185934949666e-05,
        1.0
      ],
      "name": "clothing2"
    },
    {
      "mesh": 4,
      "name": "clothing2_clothing2_0"
    }
  ],
  "samplers": [
    {
      "magFilter": 9729,
      "minFilter": 9987,
      "wrapS": 10497,
      "wrapT": 10497
    }
  ],
  "scene": 0,
  "scenes": [
    {
      "name": "Sketchfab_Scene",
      "nodes": [
        0
      ]
    }
  ],
  "textures": [
    {
      "sampler": 0,
      "source": 0
    },
    {
      "sampler": 0,
      "source": 1
    },
    {
      "sampler": 0,
      "source": 2
    },
    {
      "sampler": 0,
      "source": 3
    },
    {
      "sampler": 0,
      "source": 4
    },
    {
      "sampler": 0,
      "source": 5
    },
    {
      "sampler": 0,
      "source": 6
    },
    {
      "sampler": 0,
      "source": 7
    },
    {
      "sampler": 0,
      "source": 8
    },
    {
      "sampler": 0,
      "source": 9
    },
    {
      "sampler": 0,
      "source": 10
    },
    {
      "sampler": 0,
      "source": 11
    },
    {
      "sampler": 0,
      "source": 12
    },
    {
      "sampler": 0,
      "source": 13
    },
    {
      "sampler": 0,
      "source": 14
    }
  ]
}
