{
  "asset": {
    "generator": "Khronos glTF Blender I/O v1.8.19",
    "version": "2.0"
  },
  "scene": 0,
  "scenes": [
    {
      "name": "Scene",
      "nodes": [12]
    }
  ],
  "nodes": [
    {
      "mesh": 0,
      "name": "briefcase_briefcase_0"
    },
    {
      "children": [0],
      "name": "briefcase",
      "scale": [100, 100, 100],
      "translation": [0, 201.45912170410156, 3.282185934949666e-5]
    },
    {
      "mesh": 1,
      "name": "clothing1_clothing1_0"
    },
    {
      "children": [2],
      "name": "clothing1",
      "scale": [100, 100, 100],
      "translation": [0, 201.45912170410156, 3.282185934949666e-5]
    },
    {
      "mesh": 2,
      "name": "clothing2_clothing2_0"
    },
    {
      "children": [4],
      "name": "clothing2",
      "scale": [100, 100, 100],
      "translation": [0, 201.45912170410156, 3.282185934949666e-5]
    },
    {
      "mesh": 3,
      "name": "head_head_0"
    },
    {
      "children": [6],
      "name": "head",
      "scale": [100, 100, 100],
      "translation": [0, 201.45912170410156, 3.282185934949666e-5]
    },
    {
      "mesh": 4,
      "name": "wood_wood_0"
    },
    {
      "children": [8],
      "name": "wood",
      "scale": [100, 100, 100],
      "translation": [0, 201.45912170410156, 3.282185934949666e-5]
    },
    {
      "children": [1, 3, 5, 7, 9],
      "name": "RootNode"
    },
    {
      "children": [10],
      "name": "The Pumpkin Mage.fbx",
      "rotation": [0.7071068286895752, 0, 0, 0.7071068286895752]
    },
    {
      "children": [11],
      "name": "Sketchfab_model",
      "rotation": [-0.7071068286895752, 0, 0, 0.7071068286895752],
      "scale": [
        0.0015738875372335315, 0.0015738875372335315, 0.0015738875372335315
      ],
      "translation": [0, -2.28995722864056e-5, -1.2072493518644478e-5]
    }
  ],
  "materials": [
    {
      "doubleSided": true,
      "name": "briefcase",
      "normalTexture": {
        "index": 0
      },
      "occlusionTexture": {
        "index": 1
      },
      "pbrMetallicRoughness": {
        "baseColorTexture": {
          "index": 2
        },
        "metallicRoughnessTexture": {
          "index": 1
        }
      }
    },
    {
      "doubleSided": true,
      "name": "clothing1",
      "normalTexture": {
        "index": 3,
        "texCoord": 1
      },
      "pbrMetallicRoughness": {
        "baseColorTexture": {
          "index": 4
        },
        "metallicRoughnessTexture": {
          "index": 5
        }
      }
    },
    {
      "doubleSided": true,
      "name": "clothing2",
      "normalTexture": {
        "index": 6
      },
      "pbrMetallicRoughness": {
        "baseColorTexture": {
          "index": 7
        },
        "metallicRoughnessTexture": {
          "index": 8
        }
      }
    },
    {
      "doubleSided": true,
      "name": "head",
      "normalTexture": {
        "index": 9,
        "texCoord": 1
      },
      "pbrMetallicRoughness": {
        "baseColorTexture": {
          "index": 10
        },
        "metallicRoughnessTexture": {
          "index": 11
        }
      }
    },
    {
      "doubleSided": true,
      "name": "wood",
      "normalTexture": {
        "index": 12
      },
      "pbrMetallicRoughness": {
        "baseColorTexture": {
          "index": 13
        },
        "metallicRoughnessTexture": {
          "index": 14
        }
      }
    }
  ],
  "meshes": [
    {
      "name": "briefcase_briefcase_0",
      "primitives": [
        {
          "attributes": {
            "POSITION": 0,
            "NORMAL": 1,
            "TEXCOORD_0": 2,
            "TEXCOORD_1": 3
          },
          "indices": 4,
          "material": 0
        }
      ]
    },
    {
      "name": "clothing1_clothing1_0",
      "primitives": [
        {
          "attributes": {
            "POSITION": 5,
            "NORMAL": 6,
            "TEXCOORD_0": 7,
            "TEXCOORD_1": 8
          },
          "indices": 9,
          "material": 1
        }
      ]
    },
    {
      "name": "clothing2_clothing2_0",
      "primitives": [
        {
          "attributes": {
            "POSITION": 10,
            "NORMAL": 11,
            "TEXCOORD_0": 12,
            "TEXCOORD_1": 13
          },
          "indices": 14,
          "material": 2
        }
      ]
    },
    {
      "name": "head_head_0",
      "primitives": [
        {
          "attributes": {
            "POSITION": 15,
            "NORMAL": 16,
            "TEXCOORD_0": 17,
            "TEXCOORD_1": 18
          },
          "indices": 19,
          "material": 3
        }
      ]
    },
    {
      "name": "wood_wood_0",
      "primitives": [
        {
          "attributes": {
            "POSITION": 20,
            "NORMAL": 21,
            "TEXCOORD_0": 22,
            "TEXCOORD_1": 23
          },
          "indices": 24,
          "material": 4
        }
      ]
    }
  ],
  "textures": [
    {
      "sampler": 0,
      "source": 0
    },
    {
      "sampler": 0,
      "source": 1
    },
    {
      "sampler": 0,
      "source": 2
    },
    {
      "sampler": 0,
      "source": 3
    },
    {
      "sampler": 0,
      "source": 4
    },
    {
      "sampler": 0,
      "source": 5
    },
    {
      "sampler": 0,
      "source": 6
    },
    {
      "sampler": 0,
      "source": 7
    },
    {
      "sampler": 0,
      "source": 8
    },
    {
      "sampler": 0,
      "source": 9
    },
    {
      "sampler": 0,
      "source": 10
    },
    {
      "sampler": 0,
      "source": 11
    },
    {
      "sampler": 0,
      "source": 12
    },
    {
      "sampler": 0,
      "source": 13
    },
    {
      "sampler": 0,
      "source": 14
    }
  ],
  "images": [
    {
      "mimeType": "image/png",
      "name": "briefcase_normal",
      "uri": "textures/briefcase_normal.png"
    },
    {
      "mimeType": "image/png",
      "name": "briefcase_metallicRoughness",
      "uri": "textures/briefcase_metallicRoughness.png"
    },
    {
      "mimeType": "image/jpeg",
      "name": "briefcase_baseColor",
      "uri": "textures/briefcase_baseColor.jpg"
    },
    {
      "mimeType": "image/png",
      "name": "clothing1_normal",
      "uri": "textures/clothing1_normal.png"
    },
    {
      "mimeType": "image/jpeg",
      "name": "clothing1_baseColor",
      "uri": "textures/clothing1_baseColor.jpg"
    },
    {
      "mimeType": "image/png",
      "name": "clothing1_metallicRoughness",
      "uri": "textures/clothing1_metallicRoughness.png"
    },
    {
      "mimeType": "image/png",
      "name": "clothing2_normal",
      "uri": "textures/clothing2_normal.png"
    },
    {
      "mimeType": "image/jpeg",
      "name": "clothing2_baseColor",
      "uri": "textures/clothing2_baseColor.jpg"
    },
    {
      "mimeType": "image/png",
      "name": "clothing2_metallicRoughness",
      "uri": "textures/clothing2_metallicRoughness.png"
    },
    {
      "mimeType": "image/png",
      "name": "head_normal",
      "uri": "textures/head_normal.png"
    },
    {
      "mimeType": "image/jpeg",
      "name": "head_baseColor",
      "uri": "textures/head_baseColor.jpg"
    },
    {
      "mimeType": "image/png",
      "name": "head_metallicRoughness",
      "uri": "textures/head_metallicRoughness.png"
    },
    {
      "mimeType": "image/png",
      "name": "wood_normal",
      "uri": "textures/wood_normal.png"
    },
    {
      "mimeType": "image/jpeg",
      "name": "wood_baseColor",
      "uri": "textures/wood_baseColor.jpg"
    },
    {
      "mimeType": "image/png",
      "name": "wood_metallicRoughness",
      "uri": "textures/wood_metallicRoughness.png"
    }
  ],
  "accessors": [
    {
      "bufferView": 0,
      "componentType": 5126,
      "count": 553,
      "max": [1.338958978652954, 3.8993730545043945, 0.6921849846839905],
      "min": [-0.4449799954891205, 0.686913013458252, -0.8467389941215515],
      "type": "VEC3"
    },
    {
      "bufferView": 1,
      "componentType": 5126,
      "count": 553,
      "type": "VEC3"
    },
    {
      "bufferView": 2,
      "componentType": 5126,
      "count": 553,
      "type": "VEC2"
    },
    {
      "bufferView": 3,
      "componentType": 5126,
      "count": 553,
      "type": "VEC2"
    },
    {
      "bufferView": 4,
      "componentType": 5123,
      "count": 1881,
      "type": "SCALAR"
    },
    {
      "bufferView": 5,
      "componentType": 5126,
      "count": 687,
      "max": [1.502274990081787, 3.978339910507202, 0.5799059867858887],
      "min": [-1.131469964981079, 1.402189016342163, -1.3394759893417358],
      "type": "VEC3"
    },
    {
      "bufferView": 6,
      "componentType": 5126,
      "count": 687,
      "type": "VEC3"
    },
    {
      "bufferView": 7,
      "componentType": 5126,
      "count": 687,
      "type": "VEC2"
    },
    {
      "bufferView": 8,
      "componentType": 5126,
      "count": 687,
      "type": "VEC2"
    },
    {
      "bufferView": 9,
      "componentType": 5123,
      "count": 2628,
      "type": "SCALAR"
    },
    {
      "bufferView": 10,
      "componentType": 5126,
      "count": 1008,
      "max": [2.38263201713562, 3.870527982711792, 2.306835889816284],
      "min": [-2.1316630840301514, -0.02836799994111061, -1.269745945930481],
      "type": "VEC3"
    },
    {
      "bufferView": 11,
      "componentType": 5126,
      "count": 1008,
      "type": "VEC3"
    },
    {
      "bufferView": 12,
      "componentType": 5126,
      "count": 1008,
      "type": "VEC2"
    },
    {
      "bufferView": 13,
      "componentType": 5126,
      "count": 1008,
      "type": "VEC2"
    },
    {
      "bufferView": 14,
      "componentType": 5123,
      "count": 4056,
      "type": "SCALAR"
    },
    {
      "bufferView": 15,
      "componentType": 5126,
      "count": 634,
      "max": [1.4947459697723389, 6.557175159454346, 1.5753660202026367],
      "min": [-1.5125410556793213, 3.4793360233306885, -1.1073800325393677],
      "type": "VEC3"
    },
    {
      "bufferView": 16,
      "componentType": 5126,
      "count": 634,
      "type": "VEC3"
    },
    {
      "bufferView": 17,
      "componentType": 5126,
      "count": 634,
      "type": "VEC2"
    },
    {
      "bufferView": 18,
      "componentType": 5126,
      "count": 634,
      "type": "VEC2"
    },
    {
      "bufferView": 19,
      "componentType": 5123,
      "count": 2679,
      "type": "SCALAR"
    },
    {
      "bufferView": 20,
      "componentType": 5126,
      "count": 415,
      "max": [2.5380289554595947, 7.431191921234131, 2.3924219608306885],
      "min": [-1.794625997543335, -2.019479274749756, -2.0136759281158447],
      "type": "VEC3"
    },
    {
      "bufferView": 21,
      "componentType": 5126,
      "count": 415,
      "type": "VEC3"
    },
    {
      "bufferView": 22,
      "componentType": 5126,
      "count": 415,
      "type": "VEC2"
    },
    {
      "bufferView": 23,
      "componentType": 5126,
      "count": 415,
      "type": "VEC2"
    },
    {
      "bufferView": 24,
      "componentType": 5123,
      "count": 1314,
      "type": "SCALAR"
    }
  ],
  "bufferViews": [
    {
      "buffer": 0,
      "byteLength": 6636,
      "byteOffset": 0
    },
    {
      "buffer": 0,
      "byteLength": 6636,
      "byteOffset": 6636
    },
    {
      "buffer": 0,
      "byteLength": 4424,
      "byteOffset": 13272
    },
    {
      "buffer": 0,
      "byteLength": 4424,
      "byteOffset": 17696
    },
    {
      "buffer": 0,
      "byteLength": 3762,
      "byteOffset": 22120
    },
    {
      "buffer": 0,
      "byteLength": 8244,
      "byteOffset": 25884
    },
    {
      "buffer": 0,
      "byteLength": 8244,
      "byteOffset": 34128
    },
    {
      "buffer": 0,
      "byteLength": 5496,
      "byteOffset": 42372
    },
    {
      "buffer": 0,
      "byteLength": 5496,
      "byteOffset": 47868
    },
    {
      "buffer": 0,
      "byteLength": 5256,
      "byteOffset": 53364
    },
    {
      "buffer": 0,
      "byteLength": 12096,
      "byteOffset": 58620
    },
    {
      "buffer": 0,
      "byteLength": 12096,
      "byteOffset": 70716
    },
    {
      "buffer": 0,
      "byteLength": 8064,
      "byteOffset": 82812
    },
    {
      "buffer": 0,
      "byteLength": 8064,
      "byteOffset": 90876
    },
    {
      "buffer": 0,
      "byteLength": 8112,
      "byteOffset": 98940
    },
    {
      "buffer": 0,
      "byteLength": 7608,
      "byteOffset": 107052
    },
    {
      "buffer": 0,
      "byteLength": 7608,
      "byteOffset": 114660
    },
    {
      "buffer": 0,
      "byteLength": 5072,
      "byteOffset": 122268
    },
    {
      "buffer": 0,
      "byteLength": 5072,
      "byteOffset": 127340
    },
    {
      "buffer": 0,
      "byteLength": 5358,
      "byteOffset": 132412
    },
    {
      "buffer": 0,
      "byteLength": 4980,
      "byteOffset": 137772
    },
    {
      "buffer": 0,
      "byteLength": 4980,
      "byteOffset": 142752
    },
    {
      "buffer": 0,
      "byteLength": 3320,
      "byteOffset": 147732
    },
    {
      "buffer": 0,
      "byteLength": 3320,
      "byteOffset": 151052
    },
    {
      "buffer": 0,
      "byteLength": 2628,
      "byteOffset": 154372
    }
  ],
  "samplers": [
    {
      "magFilter": 9729,
      "minFilter": 9987
    }
  ],
  "buffers": [
    {
      "byteLength": 157000,
      "uri": "PumpkinMonster.bin"
    }
  ]
}
