{
  "asset": {
    "generator": "Khronos glTF Blender I/O v1.8.19",
    "version": "2.0"
  },
  "scene": 0,
  "scenes": [
    {
      "name": "Scene",
      "nodes": [18]
    }
  ],
  "nodes": [
    {
      "mesh": 0,
      "name": "Armor_Material.002_0"
    },
    {
      "children": [0],
      "name": "Armor",
      "rotation": [0.11320320516824722, 0, 0, 0.993571937084198],
      "scale": [100, 99.99999237060547, 99.99999237060547]
    },
    {
      "mesh": 1,
      "name": "Cloth_Material.002_0"
    },
    {
      "children": [2],
      "name": "Cloth",
      "rotation": [0.11320320516824722, 0, 0, 0.993571937084198],
      "scale": [100, 99.99999237060547, 99.99999237060547]
    },
    {
      "mesh": 2,
      "name": "Helmet_Material.003_0"
    },
    {
      "children": [4],
      "name": "Helmet",
      "scale": [100, 100, 100],
      "translation": [0, 5893.3740234375, -86.29493713378906]
    },
    {
      "mesh": 3,
      "name": "L.hand_Material.004_0"
    },
    {
      "children": [6],
      "name": "L.hand",
      "rotation": [
        -0.2829517722129822, 0.6846633553504944, -0.5885266065597534,
        0.3237451910972595
      ],
      "scale": [99.99999237060547, 100, 100.00000762939453],
      "translation": [3975.44482421875, 3857.568359375, 818.022705078125]
    },
    {
      "mesh": 4,
      "name": "Pants_Material.002_0"
    },
    {
      "children": [8],
      "name": "Pants",
      "rotation": [0.11320320516824722, 0, 0, 0.993571937084198],
      "scale": [100, 99.99999237060547, 99.99999237060547]
    },
    {
      "mesh": 5,
      "name": "Pillum_Material.001_0"
    },
    {
      "children": [10],
      "name": "Pillum",
      "rotation": [
        -0.0002775836328510195, 0.48078131675720215, -0.03199953958392143,
        0.8762564063072205
      ],
      "scale": [73.0909423828125, 73.0909423828125, 73.0909423828125],
      "translation": [-1966.13623046875, -857.7665405273438, 2403.01953125]
    },
    {
      "mesh": 6,
      "name": "R.hand_Material.005_0"
    },
    {
      "children": [12],
      "name": "R.hand",
      "rotation": [
        0.8343573808670044, -0.0635594055056572, 0.4784940481185913,
        0.2661794126033783
      ],
      "scale": [-100, -100, -100],
      "translation": [-2792.40673828125, -710.8057861328125, 1715.32421875]
    },
    {
      "mesh": 7,
      "name": "Sword_mat_2_0"
    },
    {
      "children": [14],
      "name": "Sword",
      "rotation": [
        -0.5392510294914246, 0.4573930501937866, 0.45739346742630005,
        0.5392506718635559
      ],
      "scale": [100, 100, 100],
      "translation": [4145.39208984375, 3201.3095703125, 1012.6815795898438]
    },
    {
      "children": [1, 3, 5, 7, 9, 11, 13, 15],
      "name": "RootNode"
    },
    {
      "children": [16],
      "name": "43fef6fa3fde47b3b6efd992b4592007.fbx",
      "rotation": [0.7071068286895752, 0, 0, 0.7071068286895752],
      "scale": [
        0.009999999776482582, 0.009999999776482582, 0.009999999776482582
      ]
    },
    {
      "children": [17],
      "name": "Sketchfab_model",
      "rotation": [
        -0.07294978946447372, 0.7033326625823975, 0.7033348083496094,
        0.07294998317956924
      ],
      "scale": [
        0.014170220121741295, 0.014170226640999317, 0.014170222915709019
      ],
      "translation": [-0.03216269612312317, 1.4172405004501343, 0]
    }
  ],
  "materials": [
    {
      "doubleSided": true,
      "name": "Material.002",
      "pbrMetallicRoughness": {
        "baseColorTexture": {
          "index": 0
        },
        "metallicRoughnessTexture": {
          "index": 1
        }
      }
    },
    {
      "doubleSided": true,
      "name": "Material.003",
      "pbrMetallicRoughness": {
        "baseColorTexture": {
          "index": 2
        },
        "metallicRoughnessTexture": {
          "index": 3
        }
      }
    },
    {
      "doubleSided": true,
      "name": "Material.004",
      "pbrMetallicRoughness": {
        "baseColorTexture": {
          "index": 4
        },
        "metallicFactor": 0,
        "metallicRoughnessTexture": {
          "index": 5
        }
      }
    },
    {
      "doubleSided": true,
      "name": "Material.001",
      "pbrMetallicRoughness": {
        "baseColorTexture": {
          "index": 6
        },
        "metallicRoughnessTexture": {
          "index": 7
        }
      }
    },
    {
      "doubleSided": true,
      "name": "Material.005",
      "pbrMetallicRoughness": {
        "baseColorTexture": {
          "index": 8
        },
        "metallicFactor": 0,
        "metallicRoughnessTexture": {
          "index": 9
        }
      }
    },
    {
      "doubleSided": true,
      "name": "mat_2",
      "pbrMetallicRoughness": {
        "baseColorTexture": {
          "index": 10
        },
        "metallicRoughnessTexture": {
          "index": 11
        }
      }
    }
  ],
  "meshes": [
    {
      "name": "Armor_Material.002_0",
      "primitives": [
        {
          "attributes": {
            "POSITION": 0,
            "NORMAL": 1,
            "TEXCOORD_0": 2
          },
          "indices": 3,
          "material": 0
        }
      ]
    },
    {
      "name": "Cloth_Material.002_0",
      "primitives": [
        {
          "attributes": {
            "POSITION": 4,
            "NORMAL": 5,
            "TEXCOORD_0": 6
          },
          "indices": 7,
          "material": 0
        }
      ]
    },
    {
      "name": "Helmet_Material.003_0",
      "primitives": [
        {
          "attributes": {
            "POSITION": 8,
            "NORMAL": 9,
            "TEXCOORD_0": 10
          },
          "indices": 11,
          "material": 1
        }
      ]
    },
    {
      "name": "L.hand_Material.004_0",
      "primitives": [
        {
          "attributes": {
            "POSITION": 12,
            "NORMAL": 13,
            "TEXCOORD_0": 14
          },
          "indices": 15,
          "material": 2
        }
      ]
    },
    {
      "name": "Pants_Material.002_0",
      "primitives": [
        {
          "attributes": {
            "POSITION": 16,
            "NORMAL": 17,
            "TEXCOORD_0": 18
          },
          "indices": 19,
          "material": 0
        }
      ]
    },
    {
      "name": "Pillum_Material.001_0",
      "primitives": [
        {
          "attributes": {
            "POSITION": 20,
            "NORMAL": 21,
            "TEXCOORD_0": 22
          },
          "indices": 23,
          "material": 3
        }
      ]
    },
    {
      "name": "R.hand_Material.005_0",
      "primitives": [
        {
          "attributes": {
            "POSITION": 24,
            "NORMAL": 25,
            "TEXCOORD_0": 26
          },
          "indices": 15,
          "material": 4
        }
      ]
    },
    {
      "name": "Sword_mat_2_0",
      "primitives": [
        {
          "attributes": {
            "POSITION": 27,
            "NORMAL": 28,
            "TEXCOORD_0": 29
          },
          "indices": 30,
          "material": 5
        }
      ]
    }
  ],
  "textures": [
    {
      "sampler": 0,
      "source": 0
    },
    {
      "sampler": 0,
      "source": 1
    },
    {
      "sampler": 0,
      "source": 2
    },
    {
      "sampler": 0,
      "source": 1
    },
    {
      "sampler": 0,
      "source": 0
    },
    {
      "sampler": 0,
      "source": 3
    },
    {
      "sampler": 0,
      "source": 4
    },
    {
      "sampler": 0,
      "source": 1
    },
    {
      "sampler": 0,
      "source": 0
    },
    {
      "sampler": 0,
      "source": 3
    },
    {
      "sampler": 0,
      "source": 5
    },
    {
      "sampler": 0,
      "source": 1
    }
  ],
  "images": [
    {
      "mimeType": "image/jpeg",
      "name": "Material.002_baseColor",
      "uri": "textures/Material_002_baseColor.jpg"
    },
    {
      "mimeType": "image/png",
      "name": "Material.002_metallicRoughness",
      "uri": "textures/Material_002_metallicRoughness.png"
    },
    {
      "mimeType": "image/jpeg",
      "name": "Material.003_baseColor",
      "uri": "textures/Material_003_baseColor.jpg"
    },
    {
      "mimeType": "image/png",
      "name": "Material.004_metallicRoughness",
      "uri": "textures/Material_004_metallicRoughness.png"
    },
    {
      "mimeType": "image/jpeg",
      "name": "Material.001_baseColor",
      "uri": "textures/Material_001_baseColor.jpg"
    },
    {
      "mimeType": "image/jpeg",
      "name": "mat_2_baseColor",
      "uri": "textures/mat_2_baseColor.jpg"
    }
  ],
  "accessors": [
    {
      "bufferView": 0,
      "componentType": 5126,
      "count": 12768,
      "max": [47.452789306640625, 67.75175476074219, 44.78363800048828],
      "min": [-39.30876159667969, -99.4890365600586, -36.73363494873047],
      "type": "VEC3"
    },
    {
      "bufferView": 1,
      "componentType": 5126,
      "count": 12768,
      "type": "VEC3"
    },
    {
      "bufferView": 2,
      "componentType": 5126,
      "count": 12768,
      "type": "VEC2"
    },
    {
      "bufferView": 3,
      "componentType": 5123,
      "count": 12768,
      "type": "SCALAR"
    },
    {
      "bufferView": 4,
      "componentType": 5126,
      "count": 1128,
      "max": [29.431604385375977, 16.845230102539062, 29.818918228149414],
      "min": [-27.400421142578125, -28.140541076660156, -8.375370025634766],
      "type": "VEC3"
    },
    {
      "bufferView": 5,
      "componentType": 5126,
      "count": 1128,
      "type": "VEC3"
    },
    {
      "bufferView": 6,
      "componentType": 5126,
      "count": 1128,
      "type": "VEC2"
    },
    {
      "bufferView": 7,
      "componentType": 5123,
      "count": 1128,
      "type": "SCALAR"
    },
    {
      "bufferView": 8,
      "componentType": 5126,
      "count": 3648,
      "max": [10.841301918029785, 33.199188232421875, 15.699175834655762],
      "min": [-10.76906681060791, -2.5282745361328125, -10.49953842163086],
      "type": "VEC3"
    },
    {
      "bufferView": 9,
      "componentType": 5126,
      "count": 3648,
      "type": "VEC3"
    },
    {
      "bufferView": 10,
      "componentType": 5126,
      "count": 3648,
      "type": "VEC2"
    },
    {
      "bufferView": 11,
      "componentType": 5123,
      "count": 3648,
      "type": "SCALAR"
    },
    {
      "bufferView": 12,
      "componentType": 5126,
      "count": 1404,
      "max": [5.369619369506836, 10.367790222167969, 6.390020847320557],
      "min": [-6.469423294067383, -5.952953338623047, -5.786019802093506],
      "type": "VEC3"
    },
    {
      "bufferView": 13,
      "componentType": 5126,
      "count": 1404,
      "type": "VEC3"
    },
    {
      "bufferView": 14,
      "componentType": 5126,
      "count": 1404,
      "type": "VEC2"
    },
    {
      "bufferView": 15,
      "componentType": 5123,
      "count": 1404,
      "type": "SCALAR"
    },
    {
      "bufferView": 16,
      "componentType": 5126,
      "count": 298,
      "max": [28.374143600463867, 11.599899291992188, 27.332548141479492],
      "min": [-26.393224716186523, -39.68165969848633, -6.631923675537109],
      "type": "VEC3"
    },
    {
      "bufferView": 17,
      "componentType": 5126,
      "count": 298,
      "type": "VEC3"
    },
    {
      "bufferView": 18,
      "componentType": 5126,
      "count": 298,
      "type": "VEC2"
    },
    {
      "bufferView": 19,
      "componentType": 5123,
      "count": 1284,
      "type": "SCALAR"
    },
    {
      "bufferView": 20,
      "componentType": 5126,
      "count": 520,
      "max": [5.397705078125, 5.087995529174805, 69.13153839111328],
      "min": [-5.397796630859375, -5.087905406951904, -69.13153839111328],
      "type": "VEC3"
    },
    {
      "bufferView": 21,
      "componentType": 5126,
      "count": 520,
      "type": "VEC3"
    },
    {
      "bufferView": 22,
      "componentType": 5126,
      "count": 520,
      "type": "VEC2"
    },
    {
      "bufferView": 23,
      "componentType": 5123,
      "count": 828,
      "type": "SCALAR"
    },
    {
      "bufferView": 24,
      "componentType": 5126,
      "count": 1404,
      "max": [5.369619369506836, 10.367790222167969, 6.390020847320557],
      "min": [-6.469423294067383, -5.952953338623047, -5.786019802093506],
      "type": "VEC3"
    },
    {
      "bufferView": 25,
      "componentType": 5126,
      "count": 1404,
      "type": "VEC3"
    },
    {
      "bufferView": 26,
      "componentType": 5126,
      "count": 1404,
      "type": "VEC2"
    },
    {
      "bufferView": 27,
      "componentType": 5126,
      "count": 1781,
      "max": [20.253395080566406, 5.680816650390625, 58.6967658996582],
      "min": [-20.47092056274414, -5.557952880859375, -134.63731384277344],
      "type": "VEC3"
    },
    {
      "bufferView": 28,
      "componentType": 5126,
      "count": 1781,
      "type": "VEC3"
    },
    {
      "bufferView": 29,
      "componentType": 5126,
      "count": 1781,
      "type": "VEC2"
    },
    {
      "bufferView": 30,
      "componentType": 5123,
      "count": 1812,
      "type": "SCALAR"
    }
  ],
  "bufferViews": [
    {
      "buffer": 0,
      "byteLength": 153216,
      "byteOffset": 0
    },
    {
      "buffer": 0,
      "byteLength": 153216,
      "byteOffset": 153216
    },
    {
      "buffer": 0,
      "byteLength": 102144,
      "byteOffset": 306432
    },
    {
      "buffer": 0,
      "byteLength": 25536,
      "byteOffset": 408576
    },
    {
      "buffer": 0,
      "byteLength": 13536,
      "byteOffset": 434112
    },
    {
      "buffer": 0,
      "byteLength": 13536,
      "byteOffset": 447648
    },
    {
      "buffer": 0,
      "byteLength": 9024,
      "byteOffset": 461184
    },
    {
      "buffer": 0,
      "byteLength": 2256,
      "byteOffset": 470208
    },
    {
      "buffer": 0,
      "byteLength": 43776,
      "byteOffset": 472464
    },
    {
      "buffer": 0,
      "byteLength": 43776,
      "byteOffset": 516240
    },
    {
      "buffer": 0,
      "byteLength": 29184,
      "byteOffset": 560016
    },
    {
      "buffer": 0,
      "byteLength": 7296,
      "byteOffset": 589200
    },
    {
      "buffer": 0,
      "byteLength": 16848,
      "byteOffset": 596496
    },
    {
      "buffer": 0,
      "byteLength": 16848,
      "byteOffset": 613344
    },
    {
      "buffer": 0,
      "byteLength": 11232,
      "byteOffset": 630192
    },
    {
      "buffer": 0,
      "byteLength": 2808,
      "byteOffset": 641424
    },
    {
      "buffer": 0,
      "byteLength": 3576,
      "byteOffset": 644232
    },
    {
      "buffer": 0,
      "byteLength": 3576,
      "byteOffset": 647808
    },
    {
      "buffer": 0,
      "byteLength": 2384,
      "byteOffset": 651384
    },
    {
      "buffer": 0,
      "byteLength": 2568,
      "byteOffset": 653768
    },
    {
      "buffer": 0,
      "byteLength": 6240,
      "byteOffset": 656336
    },
    {
      "buffer": 0,
      "byteLength": 6240,
      "byteOffset": 662576
    },
    {
      "buffer": 0,
      "byteLength": 4160,
      "byteOffset": 668816
    },
    {
      "buffer": 0,
      "byteLength": 1656,
      "byteOffset": 672976
    },
    {
      "buffer": 0,
      "byteLength": 16848,
      "byteOffset": 674632
    },
    {
      "buffer": 0,
      "byteLength": 16848,
      "byteOffset": 691480
    },
    {
      "buffer": 0,
      "byteLength": 11232,
      "byteOffset": 708328
    },
    {
      "buffer": 0,
      "byteLength": 21372,
      "byteOffset": 719560
    },
    {
      "buffer": 0,
      "byteLength": 21372,
      "byteOffset": 740932
    },
    {
      "buffer": 0,
      "byteLength": 14248,
      "byteOffset": 762304
    },
    {
      "buffer": 0,
      "byteLength": 3624,
      "byteOffset": 776552
    }
  ],
  "samplers": [
    {
      "magFilter": 9729,
      "minFilter": 9987
    }
  ],
  "buffers": [
    {
      "byteLength": 780176,
      "uri": "Warrior.bin"
    }
  ]
}
